<?xml version="1.0" encoding="UTF-8" standalone="no"?>
<svg
   width="64"
   height="66"
   viewBox="0 0 64 66"
   fill="none"
   version="1.1"
   id="svg4"
   sodipodi:docname="facebook.svg"
   inkscape:version="1.2.2 (732a01da63, 2022-12-09)"
   xmlns:inkscape="http://www.inkscape.org/namespaces/inkscape"
   xmlns:sodipodi="http://sodipodi.sourceforge.net/DTD/sodipodi-0.dtd"
   xmlns="http://www.w3.org/2000/svg"
   xmlns:svg="http://www.w3.org/2000/svg">
  <defs
     id="defs8" />
  <sodipodi:namedview
     id="namedview6"
     pagecolor="#ffffff"
     bordercolor="#000000"
     borderopacity="0.25"
     inkscape:showpageshadow="2"
     inkscape:pageopacity="0.0"
     inkscape:pagecheckerboard="0"
     inkscape:deskcolor="#d1d1d1"
     showgrid="false"
     inkscape:zoom="8.6138462"
     inkscape:cx="23.450616"
     inkscape:cy="37.439721"
     inkscape:window-width="1920"
     inkscape:window-height="991"
     inkscape:window-x="-9"
     inkscape:window-y="-9"
     inkscape:window-maximized="1"
     inkscape:current-layer="svg4" />
  <path
     id="path390"
     style="fill:#000000;stroke-width:7.78583;stroke-linecap:round"
     d="M 52.938026,32.215572 A 18.806931,21.999464 0 0 1 34.131096,54.215036 18.806931,21.999464 0 0 1 15.324165,32.215572 18.806931,21.999464 0 0 1 34.131096,10.216108 18.806931,21.999464 0 0 1 52.938026,32.215572 Z" />
  <path
     d="M31.9619 2.00616e-06C36.3862 2.28387e-06 40.5435 0.85698 44.4339 2.57094C48.3242 4.28489 51.7187 6.6221 54.6174 9.58257C57.5161 12.543 59.8045 15.9969 61.4827 19.9442C63.1609 23.8915 64 28.1245 64 32.6431C64 37.1617 63.1609 41.4076 61.4827 45.3809C59.8045 49.3541 57.5161 52.821 54.6174 55.7815C51.7187 58.7419 48.3242 61.0791 44.4338 62.7931C40.5435 64.5071 36.3862 65.364 31.9619 65.364C27.5375 65.364 23.3929 64.507 19.528 62.7931C15.6631 61.0791 12.2813 58.7419 9.3826 55.7815C6.48391 52.821 4.19547 49.3541 2.51728 45.3809C0.839092 41.4076 -2.33254e-06 37.1617 -2.04892e-06 32.6431C-1.7653e-06 28.1244 0.839093 23.8915 2.51728 19.9442C4.19547 15.9969 6.48391 12.543 9.3826 9.58257C12.2813 6.6221 15.6631 4.28489 19.528 2.57093C23.3929 0.856979 27.5375 1.72846e-06 31.9619 2.00616e-06ZM44.0143 14.257L37.2253 14.257C35.9031 14.257 34.6826 14.4907 33.5638 14.9582C32.445 15.4256 31.466 16.0489 30.6269 16.8279C29.7878 17.607 29.1395 18.4899 28.6818 19.4768C28.2241 20.4636 27.9952 21.4504 27.9952 22.4372L27.9952 26.5663L21.969 26.5663L21.969 34.6686L27.9952 34.6686L27.9952 51.0291L36.0048 51.0291L36.0048 34.6686L41.9547 34.6686L41.9547 26.5663L36.0048 26.5663L36.0048 24.4628C36.0048 23.8396 36.2463 23.3462 36.7294 22.9826C37.2126 22.619 37.6321 22.4372 37.9881 22.4372L44.0143 22.4372L44.0143 14.257Z"
     fill="#BCA582"
     id="path2" />
</svg>
