<svg width="72" height="72" viewBox="0 0 72 72" fill="none" xmlns="http://www.w3.org/2000/svg">
<rect width="72" height="72" rx="36" fill="#BCA582"/>
<path d="M46.0012 11.25L25.9965 11.25C22.0864 11.253 18.3373 12.8076 15.5724 15.5724C12.8076 18.3373 11.253 22.0864 11.25 25.9965L11.25 46.0012C11.2524 49.9117 12.8067 53.6614 15.5716 56.4268C18.3366 59.1921 22.086 60.747 25.9965 60.75L46.0012 60.75C49.9115 60.7464 53.6606 59.1913 56.4254 56.4261C59.1902 53.6609 60.7447 49.9116 60.7477 46.0012L60.7477 25.9965C60.7459 22.086 59.1917 18.3362 56.4266 15.5711C53.6614 12.806 49.9117 11.2518 46.0012 11.25ZM55.7707 46.0012C55.7701 48.5921 54.7406 51.0767 52.9086 52.9087C51.0766 54.7407 48.592 55.7702 46.0012 55.7708L25.9965 55.7708C24.7136 55.7708 23.4434 55.518 22.2582 55.027C21.073 54.5361 19.9962 53.8164 19.0892 52.9092C18.1822 52.002 17.4628 50.925 16.9721 49.7397C16.4814 48.5544 16.2289 47.2841 16.2292 46.0012L16.2292 25.9965C16.2289 24.7138 16.4814 23.4435 16.9721 22.2584C17.4629 21.0732 18.1823 19.9964 19.0893 19.0894C19.9964 18.1823 21.0732 17.4629 22.2584 16.9721C23.4435 16.4814 24.7137 16.229 25.9965 16.2292L46.0012 16.2292C48.5914 16.2298 51.0754 17.2591 52.907 19.0907C54.7386 20.9223 55.7678 23.4062 55.7684 25.9965L55.7707 46.0012Z" fill="black"/>
<path d="M35.9999 23.202C28.9394 23.202 23.2019 28.9418 23.2019 36C23.2019 43.0582 28.9417 48.798 35.9999 48.798C43.0582 48.798 48.7979 43.0582 48.7979 36C48.7979 28.9418 43.0604 23.202 35.9999 23.202ZM35.9999 43.8187C33.9262 43.819 31.9374 42.9956 30.4709 41.5295C29.0044 40.0634 28.1803 38.0748 28.18 36.0011C28.1797 33.9275 29.0032 31.9386 30.4693 30.4721C31.9354 29.0056 33.924 28.1816 35.9977 28.1813C38.0713 28.181 40.0602 29.0044 41.5267 30.4705C42.9932 31.9366 43.8172 33.9252 43.8175 35.9989C43.8178 38.0725 42.9944 40.0614 41.5283 41.5279C40.0622 42.9944 38.0736 43.8184 35.9999 43.8187ZM48.8249 20.2298C49.4313 20.2302 50.0239 20.4104 50.5279 20.7475C51.0318 21.0847 51.4246 21.5637 51.6564 22.124C51.8882 22.6842 51.9488 23.3007 51.8304 23.8954C51.712 24.49 51.4199 25.0363 50.9912 25.465C50.5624 25.8938 50.0162 26.1858 49.4215 26.3042C48.8268 26.4226 48.2104 26.3621 47.6501 26.1302C47.0898 25.8984 46.6108 25.5057 46.2737 25.0017C45.9365 24.4977 45.7563 23.9051 45.7559 23.2988C45.7559 21.6068 46.9034 20.2298 48.8249 20.2298Z" fill="black"/>
</svg>
