<?xml version="1.0" encoding="UTF-8" standalone="no"?>
<!-- Created with Inkscape (http://www.inkscape.org/) -->

<svg
   width="63.708946mm"
   height="85.127151mm"
   viewBox="0 0 63.708946 85.127151"
   version="1.1"
   id="svg5"
   xml:space="preserve"
   inkscape:version="1.2.2 (732a01da63, 2022-12-09)"
   sodipodi:docname="výkres-1.svg"
   xmlns:inkscape="http://www.inkscape.org/namespaces/inkscape"
   xmlns:sodipodi="http://sodipodi.sourceforge.net/DTD/sodipodi-0.dtd"
   xmlns:xlink="http://www.w3.org/1999/xlink"
   xmlns="http://www.w3.org/2000/svg"
   xmlns:svg="http://www.w3.org/2000/svg"><sodipodi:namedview
     id="namedview7"
     pagecolor="#202020"
     bordercolor="#000000"
     borderopacity="0.25"
     inkscape:showpageshadow="2"
     inkscape:pageopacity="0"
     inkscape:pagecheckerboard="0"
     inkscape:deskcolor="#d1d1d1"
     inkscape:document-units="mm"
     showgrid="false"
     inkscape:zoom="0.50646226"
     inkscape:cx="293.2104"
     inkscape:cy="534.09706"
     inkscape:window-width="1920"
     inkscape:window-height="991"
     inkscape:window-x="-9"
     inkscape:window-y="-9"
     inkscape:window-maximized="1"
     inkscape:current-layer="g2497" /><defs
     id="defs2"><linearGradient
       id="linearGradient8214"
       inkscape:swatch="solid"><stop
         style="stop-color:#a3ba3d;stop-opacity:1;"
         offset="0"
         id="stop8212" /></linearGradient><linearGradient
       id="linearGradient48544"
       inkscape:swatch="solid"><stop
         style="stop-color:#000000;stop-opacity:1;"
         offset="0"
         id="stop48542" /></linearGradient><linearGradient
       id="linearGradient48479"
       inkscape:swatch="solid"><stop
         style="stop-color:#00ff1d;stop-opacity:1;"
         offset="0"
         id="stop48477" /></linearGradient><linearGradient
       id="linearGradient29449"
       inkscape:swatch="gradient"><stop
         style="stop-color:#ffffff;stop-opacity:1;"
         offset="0"
         id="stop29445" /><stop
         style="stop-color:#ffffff;stop-opacity:0;"
         offset="1"
         id="stop29447" /></linearGradient><linearGradient
       id="linearGradient5874"
       inkscape:swatch="solid"><stop
         style="stop-color:#050505;stop-opacity:1;"
         offset="0"
         id="stop5872" /></linearGradient><linearGradient
       inkscape:collect="always"
       xlink:href="#linearGradient8214"
       id="linearGradient7034"
       gradientUnits="userSpaceOnUse"
       x1="100.57775"
       y1="62.689713"
       x2="164.2867"
       y2="62.689713"
       gradientTransform="translate(23.404874,92.273927)" /><linearGradient
       inkscape:collect="always"
       xlink:href="#linearGradient8214"
       id="linearGradient7036"
       gradientUnits="userSpaceOnUse"
       x1="100.57775"
       y1="62.689713"
       x2="164.2867"
       y2="62.689713"
       gradientTransform="translate(23.404874,92.273927)" /></defs><g
     inkscape:groupmode="layer"
     id="g2497"
     inkscape:label="Logo 1 kopie"
     transform="translate(-123.98262,-112.40007)"
     style="display:inline"><path
       id="path7020"
       style="display:inline;fill:url(#linearGradient7036);fill-opacity:1;stroke:#a3ba3d;stroke-width:2.06;stroke-linecap:round;stroke-linejoin:miter;stroke-dasharray:none;stroke-opacity:1"
       inkscape:transform-center-x="1.4244857e-06"
       d="m 155.8371,113.64006 -30.82448,20.66179 v 41.32358 l 30.82448,20.66179 30.82447,-20.66179 v -41.32358 z m 0,9.30641 23.88226,16.00884 v 32.01666 l -23.88226,16.00884 -23.88227,-16.00884 v -32.01666 z"
       inkscape:export-filename="path1266.svg"
       inkscape:export-xdpi="94.965584"
       inkscape:export-ydpi="94.965584" /><path
       id="path7022"
       style="display:inline;opacity:0.349454;fill:#958467;fill-opacity:1;stroke:none;stroke-width:0.859999;stroke-linecap:square;stroke-linejoin:round;stroke-dasharray:none;stroke-opacity:1"
       d="m 159.7552,121.52899 c 0,0 -17.55749,0.54397 -13.19096,4.83247 3.93407,3.86377 8.39728,26.9939 8.52043,49.20439 -3.60784,-20.86841 -16.55845,-41.2804 -19.75227,-41.36838 -2.70405,-0.0745 -9.23321,5.09371 -4.70197,11.10147 11.41185,8.35133 23.06898,31.81119 23.77006,42.70764 0,0 0.89623,0.6992 1.86397,1.11983 -0.0614,0.17285 -0.0842,0.2594 0.031,0.0145 1.26638,0.54156 2.64012,0.58775 2.28409,-2.04845 -0.0765,-0.5665 0.52856,-0.58936 0.50575,-1.91332 10.3903,-22.99422 21.76216,-11.47372 21.76216,-11.47372 0,0 1.30628,-1.50225 -0.39157,-7.90182 -9.70267,-7.4274 -16.023,0.98272 -19.64195,9.87742 2.35829,-32.97284 4.15016,-55.89136 5.1148,-49.66656 z"
       sodipodi:nodetypes="cscsccccscccccc"
       inkscape:export-filename="path1266.svg"
       inkscape:export-xdpi="94.965584"
       inkscape:export-ydpi="94.965584" /><path
       id="path7024"
       style="display:inline;fill:url(#linearGradient7034);fill-opacity:1;stroke:#a3ba3d;stroke-width:2.06;stroke-linecap:round;stroke-linejoin:miter;stroke-dasharray:none;stroke-opacity:1"
       inkscape:transform-center-x="1.4244857e-06"
       d="m 155.8371,113.64006 -30.82448,20.66179 v 41.32358 l 30.82448,20.66179 30.82447,-20.66179 v -41.32358 z m 0,9.30641 23.88226,16.00884 v 32.01666 l -23.88226,16.00884 -23.88227,-16.00884 v -32.01666 z" /><path
       style="display:inline;fill:#ffffff;fill-opacity:1;stroke-width:0.326365"
       d="m 166.14772,161.91891 c 0,-0.31958 0.0986,-0.58815 0.29575,-0.8057 0.20398,-0.22441 0.49637,-0.33658 0.87714,-0.33658 0.38074,0 0.6697,0.11217 0.86689,0.33658 0.20398,0.21755 0.30597,0.48612 0.30597,0.8057 0,0.31275 -0.10199,0.57792 -0.30597,0.79551 -0.19719,0.21759 -0.48615,0.32636 -0.86689,0.32636 -0.38077,0 -0.67316,-0.10877 -0.87714,-0.32636 -0.19715,-0.21759 -0.29575,-0.48276 -0.29575,-0.79551 z"
       id="path7026" /><path
       style="display:inline;fill:#ffffff;fill-opacity:1;stroke-width:0.326365"
       d="M 163.01555,148.11782 V 163.049 h -1.80519 v -12.57523 l -3.12089,1.38706 v -1.70323 l 4.65069,-2.03978 z"
       id="path7028" /><path
       style="display:inline;fill:#ffffff;fill-opacity:1;stroke-width:0.326365"
       d="m 149.6346,156.24632 v -1.13206 h 1.42785 c 0.82952,0 1.50604,0.11217 2.02959,0.33658 0.52352,0.22435 0.92809,0.52352 1.21365,0.8975 0.28557,0.37395 0.48276,0.7853 0.59154,1.23405 0.1156,0.44197 0.17337,0.8839 0.17337,1.32586 0,0.69352 -0.10196,1.30885 -0.30594,1.84602 -0.19719,0.53713 -0.47936,0.99267 -0.84652,1.36662 -0.36038,0.37398 -0.78191,0.65615 -1.26467,0.84652 -0.48275,0.19037 -1.0097,0.28557 -1.58084,0.28557 -0.55753,0 -1.07427,-0.0918 -1.55022,-0.27539 -0.47594,-0.18355 -0.8941,-0.44875 -1.25446,-0.79548 -0.36036,-0.35358 -0.64253,-0.78533 -0.84651,-1.29527 -0.19718,-0.51674 -0.29577,-1.10488 -0.29577,-1.7644 h 1.80521 c 0,0.51674 0.085,0.96888 0.25497,1.35644 0.16998,0.38756 0.41475,0.69013 0.73432,0.90768 0.31957,0.2108 0.70371,0.31619 1.15246,0.31619 0.44875,0 0.83634,-0.0986 1.16271,-0.29575 0.32636,-0.20398 0.57792,-0.50998 0.75468,-0.91794 0.18361,-0.40795 0.27539,-0.92129 0.27539,-1.54001 0,-0.61873 -0.10199,-1.12528 -0.30597,-1.51966 -0.19719,-0.40113 -0.47933,-0.69691 -0.84649,-0.88728 -0.36716,-0.19719 -0.80573,-0.29579 -1.31567,-0.29579 z"
       id="path7030" /><path
       style="display:inline;fill:#ffffff;fill-opacity:1;stroke-width:0.326365"
       d="m 149.6346,154.69609 h 1.16268 c 0.51673,0 0.94508,-0.10878 1.28506,-0.32636 0.33997,-0.22435 0.59153,-0.52692 0.75471,-0.90769 0.16997,-0.38756 0.25499,-0.8227 0.25499,-1.30546 0,-0.57113 -0.0748,-1.0505 -0.22441,-1.43804 -0.14957,-0.38756 -0.37394,-0.67993 -0.67309,-0.8771 -0.29239,-0.19718 -0.66294,-0.29577 -1.1117,-0.29577 -0.42156,0 -0.78871,0.10539 -1.10148,0.31616 -0.31276,0.20398 -0.55414,0.49635 -0.72412,0.87711 -0.16998,0.38075 -0.25497,0.8295 -0.25497,1.34624 h -1.795 c 0,-0.75469 0.15638,-1.44143 0.46914,-2.06016 0.31957,-0.61874 0.76832,-1.11168 1.34626,-1.47884 0.58474,-0.36716 1.27146,-0.55074 2.06017,-0.55074 0.75472,0 1.41763,0.15978 1.98877,0.47934 0.57114,0.31277 1.0165,0.78192 1.33607,1.40745 0.32637,0.61873 0.48955,1.39046 0.48955,2.31515 0,0.37395 -0.0714,0.77512 -0.21416,1.20347 -0.136,0.42156 -0.35698,0.81591 -0.66294,1.18307 -0.29918,0.36716 -0.69353,0.66973 -1.18308,0.90772 -0.48275,0.23116 -1.07429,0.34673 -1.7746,0.34673 h -1.42785 z"
       id="path7032" /></g></svg>
