<?xml version="1.0" encoding="UTF-8" standalone="no"?>
<!-- Created with Inkscape (http://www.inkscape.org/) -->

<svg
   width="63.708946mm"
   height="85.127151mm"
   viewBox="0 0 63.708946 85.127151"
   version="1.1"
   id="svg5"
   xml:space="preserve"
   inkscape:version="1.2.2 (732a01da63, 2022-12-09)"
   sodipodi:docname="logo_menu.svg"
   xmlns:inkscape="http://www.inkscape.org/namespaces/inkscape"
   xmlns:sodipodi="http://sodipodi.sourceforge.net/DTD/sodipodi-0.dtd"
   xmlns:xlink="http://www.w3.org/1999/xlink"
   xmlns="http://www.w3.org/2000/svg"
   xmlns:svg="http://www.w3.org/2000/svg"><sodipodi:namedview
     id="namedview7"
     pagecolor="#202020"
     bordercolor="#000000"
     borderopacity="0.25"
     inkscape:showpageshadow="2"
     inkscape:pageopacity="0"
     inkscape:pagecheckerboard="0"
     inkscape:deskcolor="#d1d1d1"
     inkscape:document-units="mm"
     showgrid="false"
     inkscape:zoom="1.4324916"
     inkscape:cx="63.525678"
     inkscape:cy="135.07933"
     inkscape:window-width="1920"
     inkscape:window-height="991"
     inkscape:window-x="-9"
     inkscape:window-y="-9"
     inkscape:window-maximized="1"
     inkscape:current-layer="g2497" /><defs
     id="defs2"><linearGradient
       id="linearGradient8214"
       inkscape:swatch="solid"><stop
         style="stop-color:#a3ba3d;stop-opacity:1;"
         offset="0"
         id="stop8212" /></linearGradient><linearGradient
       id="linearGradient48544"
       inkscape:swatch="solid"><stop
         style="stop-color:#000000;stop-opacity:1;"
         offset="0"
         id="stop48542" /></linearGradient><linearGradient
       id="linearGradient48479"
       inkscape:swatch="solid"><stop
         style="stop-color:#00ff1d;stop-opacity:1;"
         offset="0"
         id="stop48477" /></linearGradient><linearGradient
       id="linearGradient29449"
       inkscape:swatch="gradient"><stop
         style="stop-color:#ffffff;stop-opacity:1;"
         offset="0"
         id="stop29445" /><stop
         style="stop-color:#ffffff;stop-opacity:0;"
         offset="1"
         id="stop29447" /></linearGradient><linearGradient
       id="linearGradient5874"
       inkscape:swatch="solid"><stop
         style="stop-color:#050505;stop-opacity:1;"
         offset="0"
         id="stop5872" /></linearGradient><linearGradient
       inkscape:collect="always"
       xlink:href="#linearGradient8214"
       id="linearGradient7034"
       gradientUnits="userSpaceOnUse"
       x1="100.57775"
       y1="62.689713"
       x2="164.2867"
       y2="62.689713"
       gradientTransform="translate(23.404874,92.273927)" /><linearGradient
       inkscape:collect="always"
       xlink:href="#linearGradient8214"
       id="linearGradient7036"
       gradientUnits="userSpaceOnUse"
       x1="100.57775"
       y1="62.689713"
       x2="164.2867"
       y2="62.689713"
       gradientTransform="translate(23.404874,92.273927)" /></defs><g
     inkscape:groupmode="layer"
     id="g2497"
     inkscape:label="Logo 1 kopie"
     transform="translate(-123.98262,-112.40007)"
     style="display:inline"><path
       id="path7020"
       style="display:inline;fill:url(#linearGradient7036);fill-opacity:1;stroke:#a3ba3d;stroke-width:2.06;stroke-linecap:round;stroke-linejoin:miter;stroke-dasharray:none;stroke-opacity:1"
       inkscape:transform-center-x="1.4244857e-06"
       d="m 155.8371,113.64006 -30.82448,20.66179 v 41.32358 l 30.82448,20.66179 30.82447,-20.66179 v -41.32358 z m 0,9.30641 23.88226,16.00884 v 32.01666 l -23.88226,16.00884 -23.88227,-16.00884 v -32.01666 z"
       inkscape:export-filename="path1266.svg"
       inkscape:export-xdpi="94.965584"
       inkscape:export-ydpi="94.965584" /><path
       id="path7022"
       style="display:inline;opacity:1;fill:#a3ba3d;fill-opacity:1;stroke:none;stroke-width:0.859999;stroke-linecap:square;stroke-linejoin:round;stroke-dasharray:none;stroke-opacity:1"
       d="m 159.7552,121.52899 c 0,0 -17.55749,0.54397 -13.19096,4.83247 3.93407,3.86377 8.39728,26.9939 8.52043,49.20439 -3.60784,-20.86841 -16.55845,-41.2804 -19.75227,-41.36838 -2.70405,-0.0745 -9.23321,5.09371 -4.70197,11.10147 11.41185,8.35133 23.06898,31.81119 23.77006,42.70764 0,0 0.89623,0.6992 1.86397,1.11983 -0.0614,0.17285 -0.0842,0.2594 0.031,0.0145 1.26638,0.54156 2.64012,0.58775 2.28409,-2.04845 -0.0765,-0.5665 0.52856,-0.58936 0.50575,-1.91332 10.3903,-22.99422 21.76216,-11.47372 21.76216,-11.47372 0,0 1.30628,-1.50225 -0.39157,-7.90182 -10.07207,-5.21098 -16.023,0.98272 -19.64195,9.87742 -1.28237,-35.80875 2.02222,-58.43749 5.1148,-49.66656 z"
       sodipodi:nodetypes="cscsccccscccccc"
       inkscape:export-filename="path1266.svg"
       inkscape:export-xdpi="94.965584"
       inkscape:export-ydpi="94.965584" /><path
       id="path7024"
       style="display:inline;fill:url(#linearGradient7034);fill-opacity:1;stroke:#a3ba3d;stroke-width:2.06;stroke-linecap:round;stroke-linejoin:miter;stroke-dasharray:none;stroke-opacity:1"
       inkscape:transform-center-x="1.4244857e-06"
       d="m 155.8371,113.64006 -30.82448,20.66179 v 41.32358 l 30.82448,20.66179 30.82447,-20.66179 v -41.32358 z m 0,9.30641 23.88226,16.00884 v 32.01666 l -23.88226,16.00884 -23.88227,-16.00884 v -32.01666 z" /></g></svg>
