<?xml version="1.0" encoding="UTF-8" standalone="no"?>
<!-- Created with Inkscape (http://www.inkscape.org/) -->

<svg
   width="63.70895mm"
   height="85.127144mm"
   viewBox="0 0 63.70895 85.127144"
   version="1.1"
   id="svg5"
   xml:space="preserve"
   inkscape:version="1.2.2 (732a01da63, 2022-12-09)"
   sodipodi:docname="logo.svg"
   xmlns:inkscape="http://www.inkscape.org/namespaces/inkscape"
   xmlns:sodipodi="http://sodipodi.sourceforge.net/DTD/sodipodi-0.dtd"
   xmlns:xlink="http://www.w3.org/1999/xlink"
   xmlns="http://www.w3.org/2000/svg"
   xmlns:svg="http://www.w3.org/2000/svg"><sodipodi:namedview
     id="namedview7"
     pagecolor="#000000"
     bordercolor="#000000"
     borderopacity="0.25"
     inkscape:showpageshadow="2"
     inkscape:pageopacity="0"
     inkscape:pagecheckerboard="0"
     inkscape:deskcolor="#e2e2e2"
     inkscape:document-units="mm"
     showgrid="false"
     inkscape:zoom="0.71624579"
     inkscape:cx="446.774"
     inkscape:cy="769.98707"
     inkscape:window-width="1920"
     inkscape:window-height="991"
     inkscape:window-x="-9"
     inkscape:window-y="-9"
     inkscape:window-maximized="1"
     inkscape:current-layer="g2497" /><defs
     id="defs2"><linearGradient
       id="linearGradient8214"
       inkscape:swatch="solid"><stop
         style="stop-color:#a3ba3d;stop-opacity:1;"
         offset="0"
         id="stop8212" /></linearGradient><linearGradient
       id="linearGradient48544"
       inkscape:swatch="solid"><stop
         style="stop-color:#000000;stop-opacity:1;"
         offset="0"
         id="stop48542" /></linearGradient><linearGradient
       id="linearGradient48479"
       inkscape:swatch="solid"><stop
         style="stop-color:#00ff1d;stop-opacity:1;"
         offset="0"
         id="stop48477" /></linearGradient><linearGradient
       id="linearGradient29449"
       inkscape:swatch="gradient"><stop
         style="stop-color:#ffffff;stop-opacity:1;"
         offset="0"
         id="stop29445" /><stop
         style="stop-color:#ffffff;stop-opacity:0;"
         offset="1"
         id="stop29447" /></linearGradient><linearGradient
       id="linearGradient5874"
       inkscape:swatch="solid"><stop
         style="stop-color:#050505;stop-opacity:1;"
         offset="0"
         id="stop5872" /></linearGradient><linearGradient
       inkscape:collect="always"
       xlink:href="#linearGradient8214"
       id="linearGradient7034"
       gradientUnits="userSpaceOnUse"
       x1="100.57775"
       y1="62.689713"
       x2="164.2867"
       y2="62.689713"
       gradientTransform="translate(23.404874,92.273927)" /><linearGradient
       inkscape:collect="always"
       xlink:href="#linearGradient8214"
       id="linearGradient355"
       gradientUnits="userSpaceOnUse"
       gradientTransform="translate(23.404874,92.273927)"
       x1="100.57775"
       y1="62.689713"
       x2="164.2867"
       y2="62.689713" /></defs><g
     inkscape:label="Vrstva 1"
     inkscape:groupmode="layer"
     id="layer1"
     transform="translate(-51.261197,-118.12673)"><g
       id="g2497"
       inkscape:label="Logo 1 kopie"
       transform="translate(-72.721423,5.7266585)"
       style="display:inline"><path
         id="path7020"
         style="display:inline;fill:url(#linearGradient355);fill-opacity:1;stroke:#a3ba3d;stroke-width:2.06;stroke-linecap:round;stroke-linejoin:miter;stroke-dasharray:none;stroke-opacity:1"
         inkscape:transform-center-x="1.4244857e-06"
         d="m 155.8371,113.64006 -30.82448,20.66179 v 41.32358 l 30.82448,20.66179 30.82447,-20.66179 v -41.32358 z m 0,9.30641 23.88226,16.00884 v 32.01666 l -23.88226,16.00884 -23.88227,-16.00884 v -32.01666 z"
         inkscape:export-filename="path1266.svg"
         inkscape:export-xdpi="94.965584"
         inkscape:export-ydpi="94.965584" /><path
         id="path7022"
         style="display:inline;opacity:0.349454;fill:#bca582;fill-opacity:1;stroke:none;stroke-width:0.859999;stroke-linecap:square;stroke-linejoin:round;stroke-dasharray:none;stroke-opacity:1"
         d="m 159.7552,121.52899 c 0,0 -17.55749,0.54397 -13.19096,4.83247 3.93407,3.86377 8.39728,26.9939 8.52043,49.20439 -3.60784,-20.86841 -16.55845,-41.2804 -19.75227,-41.36838 -2.70405,-0.0745 -9.23321,5.09371 -4.70197,11.10147 11.41185,8.35133 23.06898,31.81119 23.77006,42.70764 0,0 0.89623,0.6992 1.86397,1.11983 -0.0614,0.17285 -0.0842,0.2594 0.031,0.0145 1.26638,0.54156 2.64012,0.58775 2.28409,-2.04845 -0.0765,-0.5665 0.52856,-0.58936 0.50575,-1.91332 10.3903,-22.99422 21.76216,-11.47372 21.76216,-11.47372 0,0 1.30628,-1.50225 -0.39157,-7.90182 -9.70267,-7.4274 -16.023,0.98272 -19.64195,9.87742 2.35829,-32.97284 4.15016,-55.89136 5.1148,-49.66656 z"
         sodipodi:nodetypes="cscsccccscccccc"
         inkscape:export-filename="path1266.svg"
         inkscape:export-xdpi="94.965584"
         inkscape:export-ydpi="94.965584" /><path
         id="path7024"
         style="display:inline;fill:url(#linearGradient7034);fill-opacity:1;stroke:#a3ba3d;stroke-width:2.06;stroke-linecap:round;stroke-linejoin:miter;stroke-dasharray:none;stroke-opacity:1"
         inkscape:transform-center-x="1.4244857e-06"
         d="m 155.8371,113.64006 -30.82448,20.66179 v 41.32358 l 30.82448,20.66179 30.82447,-20.66179 v -41.32358 z m 0,9.30641 23.88226,16.00884 v 32.01666 l -23.88226,16.00884 -23.88227,-16.00884 v -32.01666 z" /><g
         style="fill:none"
         id="g343"
         transform="matrix(0.26458333,0,0,0.26458333,147.99738,148.55576)"><path
           d="m 8.84375,20.2188 h 4.25005 c 1.1041,0 2.0104,-0.25 2.7187,-0.75 0.7083,-0.5209 1.2292,-1.25 1.5625,-2.1876 0.3333,-0.9374 0.5,-2.0312 0.5,-3.2812 0,-1.1667 -0.1562,-2.1875 -0.4688,-3.0625 -0.3124,-0.875 -0.7916,-1.5625 -1.4374,-2.0625 -0.6459,-0.5 -1.4584,-0.75 -2.4376,-0.75 -0.75,0 -1.4479,0.20833 -2.0937,0.625 C 10.7917,9.16667 10.2708,9.76042 9.875,10.5312 9.5,11.2812 9.3125,12.1875 9.3125,13.25 H 0.5 C 0.5,10.75 1.07292,8.57292 2.21875,6.71875 3.36458,4.86458 4.90625,3.41667 6.84375,2.375 8.78125,1.33333 10.9271,0.8125 13.2812,0.8125 c 2.6459,0 4.9688,0.5 6.9688,1.5 2,0.97917 3.5625,2.4375 4.6875,4.375 1.125,1.91667 1.6875,4.2917 1.6875,7.125 0,1.4583 -0.2812,2.8646 -0.8438,4.2187 -0.5416,1.3542 -1.3333,2.573 -2.375,3.6563 -1.0416,1.0625 -2.3124,1.9063 -3.8124,2.5313 -1.4792,0.625 -3.1667,0.9374 -5.0626,0.9374 H 8.84375 Z m 0,7.0937 v -4.7813 h 5.68745 c 2.125,0 3.9792,0.2813 5.5626,0.8438 1.6041,0.5417 2.927,1.3333 3.9687,2.375 1.0625,1.0417 1.8542,2.2812 2.375,3.7188 0.5208,1.4374 0.7813,3.0208 0.7813,4.75 0,2.125 -0.3542,4.0208 -1.0626,5.6874 -0.7083,1.6667 -1.6979,3.073 -2.9687,4.2188 -1.2708,1.1458 -2.75,2.0208 -4.4375,2.625 -1.6875,0.5833 -3.5208,0.875 -5.5,0.875 -1.6458,0 -3.26042,-0.2604 -4.84375,-0.7812 C 6.84375,46.3229 5.4375,45.5208 4.1875,44.4375 2.9375,43.3542 1.94792,41.9896 1.21875,40.3438 0.489583,38.6979 0.125,36.75 0.125,34.5 h 8.75 c 0,1.125 0.19792,2.1354 0.59375,3.0312 0.39583,0.875 0.93745,1.5626 1.62505,2.0626 0.7083,0.5 1.5,0.75 2.375,0.75 1.0208,0 1.9062,-0.2605 2.6562,-0.7813 0.75,-0.5208 1.3229,-1.25 1.7188,-2.1875 0.3958,-0.9375 0.5937,-2.0312 0.5937,-3.2812 0,-1.6042 -0.2083,-2.8959 -0.625,-3.875 -0.4167,-1 -1.0208,-1.7292 -1.8125,-2.1876 -0.7917,-0.4791 -1.75,-0.7187 -2.875,-0.7187 z M 52.75,1.40625 V 47 H 44 V 12.1562 L 35.3125,15.5 V 8.1875 l 16.5,-6.78125 z M 66.7188,42.5312 c 0,-1.375 0.4583,-2.5208 1.375,-3.4374 0.9166,-0.9376 2.1562,-1.4063 3.7187,-1.4063 1.5625,0 2.8021,0.4687 3.7187,1.4063 0.9167,0.9166 1.375,2.0624 1.375,3.4374 0,1.375 -0.4583,2.5209 -1.375,3.4376 -0.9166,0.9166 -2.1562,1.375 -3.7187,1.375 -1.5625,0 -2.8021,-0.4584 -3.7187,-1.375 -0.9167,-0.9167 -1.375,-2.0626 -1.375,-3.4376 z"
           fill="#d0d0d0"
           id="path334" /></g></g></g></svg>
