<svg width="341" height="356" viewBox="0 0 341 356" fill="none" xmlns="http://www.w3.org/2000/svg">
<path d="M271.91 233.651L256.466 208.715" stroke="#A3BA3D" stroke-width="5"/>
<path d="M190.872 208.694L256.872 208.454L285.678 149.992L253.525 98.0773L187.908 97.1031L158.733 156.801L190.872 208.694Z" stroke="#A3BA3D" stroke-width="5"/>
<path d="M94.1987 268.567L160.199 268.327L189.005 209.865L156.852 157.95L91.235 156.976L62.0594 216.674L94.1987 268.567Z" stroke="#A3BA3D" stroke-width="5"/>
<line x1="89.3601" y1="156.958" x2="73.9162" y2="132.021" stroke="#A3BA3D" stroke-width="5"/>
<path d="M271.742 242.545L275.742 253.326L279.742 242.545L283.929 242.545L277.648 256.92L277.648 265.295L273.82 265.295L273.82 256.92L267.539 242.545L271.742 242.545ZM294.992 242.545L294.992 265.295L291.21 265.295L291.21 242.545L294.992 242.545ZM300.789 242.545L300.789 245.733L285.476 245.733L285.476 242.545L300.789 242.545Z" fill="#A3BA3D"/>
<path d="M53.026 117.883L56.6666 100.118L58.9166 100.118L58.8229 104.571L54.8854 122.868L52.526 122.868L53.026 117.883ZM50.7135 100.118L53.6041 117.758L53.7291 122.868L51.2448 122.868L46.9479 100.118L50.7135 100.118ZM62.8698 117.696L65.7291 100.118L69.4791 100.118L65.1979 122.868L62.7135 122.868L62.8698 117.696ZM59.8229 100.118L63.4323 117.93L63.901 122.868L61.5416 122.868L57.6979 104.555L57.6041 100.118L59.8229 100.118ZM76.2916 100.118L76.2916 122.868L72.4948 122.868L72.4948 100.118L76.2916 100.118ZM84.4791 100.118L84.4791 122.868L80.6823 122.868L80.6823 100.118L84.4791 100.118ZM95.8385 100.118L88.2604 111.102L83.7135 116.68L82.9948 112.711L86.1354 108.055L91.2448 100.118L95.8385 100.118ZM91.6666 122.868L85.901 112.118L88.5104 109.414L96.151 122.868L91.6666 122.868ZM102.229 100.118L102.229 122.868L98.4323 122.868L98.4323 100.118L102.229 100.118Z" fill="#A3BA3D"/>
</svg>
