<svg width="268" height="238" viewBox="0 0 268 238" fill="none" xmlns="http://www.w3.org/2000/svg">
<path d="M151.131 144.527L217.131 144.287L245.937 85.8246L213.784 33.9103L148.167 32.936L118.992 92.6335L151.131 144.527Z" fill="#0F1918" stroke="#A3BA3D" stroke-width="5"/>
<path d="M54.4578 204.4L120.458 204.16L149.264 145.698L117.111 93.7833L51.4942 92.809L22.3186 152.506L54.4578 204.4Z" fill="#0F1918" stroke="#A3BA3D" stroke-width="5"/>
<rect x="147" y="52" width="72" height="72" rx="36" fill="#A3BA3D"/>
<path d="M193.001 63.25L172.996 63.25C169.086 63.253 165.337 64.8076 162.572 67.5724C159.808 70.3373 158.253 74.0864 158.25 77.9965L158.25 98.0012C158.252 101.912 159.807 105.661 162.572 108.427C165.337 111.192 169.086 112.747 172.996 112.75L193.001 112.75C196.911 112.746 200.661 111.191 203.425 108.426C206.19 105.661 207.745 101.912 207.748 98.0012L207.748 77.9965C207.746 74.086 206.192 70.3362 203.427 67.5711C200.661 64.806 196.912 63.2518 193.001 63.25ZM202.771 98.0012C202.77 100.592 201.741 103.077 199.909 104.909C198.077 106.741 195.592 107.77 193.001 107.771L172.996 107.771C171.714 107.771 170.443 107.518 169.258 107.027C168.073 106.536 166.996 105.816 166.089 104.909C165.182 104.002 164.463 102.925 163.972 101.74C163.481 100.554 163.229 99.2841 163.229 98.0012L163.229 77.9965C163.229 76.7138 163.481 75.4435 163.972 74.2584C164.463 73.0732 165.182 71.9964 166.089 71.0894C166.996 70.1823 168.073 69.4629 169.258 68.9721C170.444 68.4814 171.714 68.229 172.996 68.2292L193.001 68.2292C195.591 68.2298 198.075 69.2591 199.907 71.0907C201.739 72.9223 202.768 75.4062 202.768 77.9965L202.771 98.0012Z" fill="black"/>
<path d="M183 75.202C175.939 75.202 170.202 80.9418 170.202 88C170.202 95.0582 175.942 100.798 183 100.798C190.058 100.798 195.798 95.0582 195.798 88C195.798 80.9418 190.06 75.202 183 75.202ZM183 95.8187C180.926 95.819 178.937 94.9956 177.471 93.5295C176.004 92.0634 175.18 90.0748 175.18 88.0011C175.18 85.9275 176.003 83.9386 177.469 82.4721C178.935 81.0056 180.924 80.1816 182.998 80.1813C185.071 80.181 187.06 81.0044 188.527 82.4705C189.993 83.9366 190.817 85.9252 190.818 87.9989C190.818 90.0725 189.994 92.0614 188.528 93.5279C187.062 94.9944 185.074 95.8184 183 95.8187ZM195.825 72.2298C196.431 72.2302 197.024 72.4104 197.528 72.7475C198.032 73.0847 198.425 73.5637 198.656 74.124C198.888 74.6842 198.949 75.3007 198.83 75.8954C198.712 76.49 198.42 77.0363 197.991 77.465C197.562 77.8938 197.016 78.1858 196.421 78.3042C195.827 78.4226 195.21 78.3621 194.65 78.1302C194.09 77.8984 193.611 77.5057 193.274 77.0017C192.937 76.4977 192.756 75.9051 192.756 75.2988C192.756 73.6068 193.903 72.2298 195.825 72.2298Z" fill="black"/>
<path d="M86.9619 116C91.3862 116 95.5435 116.857 99.4339 118.571C103.324 120.285 106.719 122.622 109.617 125.583C112.516 128.543 114.805 131.997 116.483 135.944C118.161 139.892 119 144.124 119 148.643C119 153.162 118.161 157.408 116.483 161.381C114.805 165.354 112.516 168.821 109.617 171.781C106.719 174.742 103.324 177.079 99.4338 178.793C95.5435 180.507 91.3862 181.364 86.9619 181.364C82.5375 181.364 78.3929 180.507 74.528 178.793C70.6631 177.079 67.2813 174.742 64.3826 171.781C61.4839 168.821 59.1955 165.354 57.5173 161.381C55.8391 157.408 55 153.162 55 148.643C55 144.124 55.8391 139.891 57.5173 135.944C59.1955 131.997 61.4839 128.543 64.3826 125.583C67.2813 122.622 70.6631 120.285 74.528 118.571C78.3929 116.857 82.5375 116 86.9619 116ZM99.0143 130.257L92.2253 130.257C90.9031 130.257 89.6826 130.491 88.5638 130.958C87.445 131.426 86.466 132.049 85.6269 132.828C84.7878 133.607 84.1395 134.49 83.6818 135.477C83.2241 136.464 82.9952 137.45 82.9952 138.437L82.9952 142.566L76.969 142.566L76.969 150.669L82.9952 150.669L82.9952 167.029L91.0048 167.029L91.0048 150.669L96.9547 150.669L96.9547 142.566L91.0048 142.566L91.0048 140.463C91.0048 139.84 91.2463 139.346 91.7294 138.983C92.2126 138.619 92.6321 138.437 92.9881 138.437L99.0143 138.437L99.0143 130.257Z" fill="#A3BA3D"/>
</svg>
