<svg width="268" height="238" viewBox="0 0 268 238" fill="none" xmlns="http://www.w3.org/2000/svg">
<path d="M151.131 144.527L217.131 144.287L245.937 85.8246L213.784 33.9103L148.167 32.936L118.992 92.6335L151.131 144.527Z" fill="#0F1918" stroke="#A3BA3D" stroke-width="5"/>
<path d="M54.4578 204.4L120.458 204.16L149.264 145.698L117.111 93.7832L51.4942 92.8089L22.3186 152.506L54.4578 204.4Z" fill="#0F1918" stroke="#A3BA3D" stroke-width="5"/>
<path d="M195.941 96.3838C196.355 96.3838 196.64 96.5133 196.795 96.7721C197.002 96.9792 197.106 97.3416 197.106 97.8593L197.106 99.1795L194.776 99.1795L194.776 97.8593C194.776 97.3934 194.853 97.031 195.009 96.7721C195.268 96.5133 195.578 96.3838 195.941 96.3838ZM186.855 96.3838C187.217 96.3838 187.476 96.4874 187.631 96.6945C187.838 96.9016 187.942 97.2122 187.942 97.6264L187.942 104.15C187.942 104.564 187.864 104.849 187.709 105.004C187.554 105.211 187.321 105.315 187.01 105.315C186.803 105.315 186.596 105.263 186.389 105.159C186.13 105.056 185.923 104.9 185.767 104.693L185.767 96.8498C185.975 96.6427 186.156 96.5133 186.311 96.4615C186.415 96.4097 186.596 96.3838 186.855 96.3838ZM181.574 56.7004C186.078 56.7004 190.297 57.5547 194.232 59.2632C198.167 60.9716 201.597 63.2885 204.522 66.2136C207.447 69.1387 209.764 72.5686 211.472 76.5033C213.181 80.438 214.035 84.6574 214.035 89.1616C214.035 93.6658 213.181 97.8852 211.472 101.82C209.764 105.755 207.447 109.197 204.522 112.148C201.597 115.099 198.167 117.429 194.232 119.138C190.297 120.846 186.078 121.7 181.574 121.7C177.07 121.7 172.85 120.846 168.916 119.138C164.981 117.429 161.538 115.099 158.587 112.148C155.636 109.197 153.306 105.755 151.598 101.82C149.889 97.8852 149.035 93.6658 149.035 89.1616C149.035 84.6574 149.889 80.438 151.598 76.5033C153.306 72.5686 155.636 69.1387 158.587 66.2136C161.538 63.2885 164.981 60.9716 168.916 59.2632C172.85 57.5547 177.07 56.7004 181.574 56.7004ZM172.41 90.0159L163.247 90.0159L163.247 92.5009L166.353 92.5009L166.353 107.101L169.304 107.101L169.304 92.5009L172.41 92.5009L172.41 90.0159ZM172.488 81.9394L176.371 70.9119L172.954 70.9119L170.935 78.4448L170.702 78.4448L168.527 70.9119L165.188 70.9119L169.149 82.25L169.149 89.7052L172.488 89.7052L172.488 81.9394ZM181.108 94.52L178.468 94.52L178.468 104.072C178.364 104.227 178.235 104.357 178.079 104.46L177.613 104.771C177.303 104.926 177.07 105.004 176.914 105.004C176.656 105.004 176.474 104.952 176.371 104.849C176.267 104.745 176.215 104.512 176.215 104.15L176.215 94.52L173.575 94.52L173.575 105.082C173.575 105.806 173.73 106.35 174.041 106.712C174.352 107.127 174.792 107.334 175.361 107.334C175.827 107.334 176.345 107.178 176.914 106.868C177.38 106.661 177.898 106.272 178.468 105.703L178.468 107.101L181.108 107.101L181.108 94.52ZM180.875 90.0159C182.273 90.0159 183.334 89.6793 184.059 89.0063C184.836 88.385 185.224 87.4531 185.224 86.2106L185.224 79.066C185.224 78.0824 184.836 77.2281 184.059 76.5033C183.334 75.8303 182.325 75.4937 181.03 75.4937C179.684 75.4937 178.623 75.8044 177.846 76.4256C177.018 77.0469 176.604 77.9012 176.604 78.9884L176.604 86.2106C176.604 87.4014 176.992 88.3333 177.769 89.0063C178.493 89.6793 179.529 90.0159 180.875 90.0159ZM190.66 97.5487C190.66 96.5133 190.427 95.7108 189.961 95.1413C189.599 94.6236 188.977 94.3647 188.097 94.3647C187.631 94.3647 187.217 94.4683 186.855 94.6753C186.44 94.8307 186.078 95.1154 185.767 95.5296L185.767 90.0159L183.049 90.0159L183.049 107.101L185.767 107.101L185.767 106.169C185.923 106.376 186.091 106.544 186.272 106.674C186.453 106.803 186.648 106.919 186.855 107.023C187.217 107.178 187.683 107.256 188.252 107.256C189.029 107.256 189.624 107.023 190.039 106.557C190.453 106.039 190.66 105.366 190.66 104.538L190.66 97.5487ZM189.728 89.8605C190.349 89.8605 190.919 89.7311 191.436 89.4722C191.954 89.2134 192.524 88.7733 193.145 88.1521L193.145 89.7052L196.096 89.7052L196.096 75.8044L193.145 75.8044L193.145 86.3659C192.938 86.6248 192.627 86.8836 192.213 87.1425C191.902 87.2978 191.644 87.3755 191.436 87.3755C191.074 87.3755 190.867 87.2978 190.815 87.1425C190.66 86.9872 190.582 86.7542 190.582 86.4436L190.582 75.8044L187.631 75.8044L187.631 87.4531C187.631 88.2815 187.812 88.8769 188.175 89.2393C188.434 89.6534 188.951 89.8605 189.728 89.8605ZM199.824 97.937C199.824 96.6945 199.487 95.7626 198.814 95.1413C198.193 94.52 197.261 94.2094 196.018 94.2094C194.828 94.2094 193.87 94.5459 193.145 95.219C192.42 95.9438 192.058 96.8498 192.058 97.937L192.058 103.528C192.058 104.771 192.394 105.729 193.067 106.402C193.792 107.127 194.724 107.489 195.863 107.489C197.157 107.489 198.141 107.152 198.814 106.479C199.487 105.858 199.824 104.874 199.824 103.528L199.824 102.907L197.106 102.907L197.106 103.451C197.106 104.227 197.028 104.719 196.873 104.926C196.665 105.133 196.355 105.237 195.941 105.237C195.423 105.237 195.112 105.107 195.009 104.849C194.853 104.641 194.776 104.176 194.776 103.451L194.776 101.121L199.824 101.121L199.824 97.937ZM180.875 77.9012C181.237 77.9012 181.574 77.9788 181.884 78.1341C182.092 78.3412 182.195 78.6001 182.195 78.9107L182.195 86.4436C182.195 86.8577 182.092 87.1425 181.884 87.2978C181.677 87.5049 181.341 87.6084 180.875 87.6084C180.461 87.6084 180.176 87.5049 180.021 87.2978C179.762 87.1425 179.632 86.8577 179.632 86.4436L179.632 78.9107C179.632 78.6519 179.762 78.393 180.021 78.1341C180.228 77.9788 180.513 77.9012 180.875 77.9012Z" fill="#A3BA3D"/>
<path d="M85.5739 116.701C90.078 116.701 94.2975 117.555 98.2322 119.263C102.167 120.972 105.597 123.289 108.522 126.214C111.447 129.139 113.764 132.569 115.472 136.504C117.181 140.438 118.035 144.658 118.035 149.162C118.035 153.666 117.181 157.885 115.472 161.82C113.764 165.755 111.447 169.198 108.522 172.149C105.597 175.1 102.167 177.429 98.2322 179.138C94.2975 180.846 90.078 181.701 85.5739 181.701C81.0697 181.701 76.8502 180.846 72.9156 179.138C68.9809 177.429 65.538 175.1 62.587 172.149C59.636 169.198 57.3062 165.755 55.5978 161.82C53.8893 157.885 53.035 153.666 53.035 149.162C53.035 144.658 53.8893 140.438 55.5978 136.504C57.3062 132.569 59.636 129.139 62.587 126.214C65.538 123.289 68.9809 120.972 72.9156 119.263C76.8502 117.555 81.0697 116.701 85.5739 116.701ZM105.843 135.028L105.765 134.95L97.3779 134.95L97.2226 135.028L97.2226 135.882C97.2226 135.934 97.2744 136.012 97.3779 136.115C97.4297 136.167 97.5074 136.193 97.6109 136.193L98.3098 136.271C98.724 136.271 99.0217 136.322 99.2029 136.426C99.3841 136.529 99.5524 136.659 99.7077 136.814C100.07 137.073 100.122 137.617 99.863 138.445L92.4078 157.937L92.1748 157.86L87.4377 147.22C87.4377 147.169 87.4506 147.13 87.4765 147.104C87.5024 147.078 87.5153 147.039 87.5153 146.987L87.5153 146.91L91.3982 138.989C91.6571 138.574 91.8771 138.186 92.0583 137.824C92.2395 137.461 92.3819 137.202 92.4855 137.047C92.6925 136.685 92.8867 136.465 93.0679 136.387C93.2491 136.309 93.6244 136.245 94.1939 136.193C94.4528 136.193 94.5822 136.089 94.5822 135.882L94.5822 135.028L94.5046 134.95L87.6706 134.95L87.5153 135.028L87.5153 135.882C87.5153 135.934 87.5671 136.012 87.6706 136.115C87.7224 136.167 87.8001 136.193 87.9036 136.193L88.2142 136.271C88.9908 136.271 89.4568 136.4 89.6121 136.659C89.7156 136.814 89.7804 137.008 89.8062 137.241C89.8321 137.474 89.7156 137.876 89.4568 138.445L86.4281 144.968L83.7877 138.911C83.3735 137.927 83.1406 137.267 83.0888 136.931C83.037 136.594 83.3477 136.374 84.0207 136.271L84.5643 136.193C84.7714 136.193 84.8749 136.089 84.8749 135.882L84.8749 135.028L84.7196 134.95L77.4974 134.95L77.3421 135.028L77.3421 135.882C77.3421 136.089 77.5233 136.193 77.8857 136.193C78.1963 136.245 78.4422 136.309 78.6234 136.387C78.8046 136.465 78.9729 136.594 79.1282 136.775C79.2835 136.957 79.4518 137.241 79.633 137.63C79.8142 138.018 80.0601 138.549 80.3708 139.222C80.4225 139.325 80.4743 139.455 80.5261 139.61C80.5778 139.765 80.6555 139.946 80.759 140.153C80.8626 140.361 80.9661 140.594 81.0697 140.852L83.8654 146.91C83.9172 147.065 83.9948 147.246 84.0984 147.453C84.2019 147.66 84.2925 147.88 84.3702 148.113C84.4478 148.346 84.5643 148.618 84.7196 148.929L80.6037 157.937L80.3708 157.86C79.1282 155.012 77.9892 152.346 76.9538 149.861C76.4878 148.774 76.0348 147.673 75.5948 146.56C75.1547 145.447 74.7146 144.373 74.2746 143.337C73.8345 142.302 73.4333 141.344 73.0709 140.464C72.7085 139.584 72.4237 138.833 72.2166 138.212C72.0613 137.694 71.9837 137.306 71.9837 137.047C71.9837 136.529 72.3978 136.271 73.2262 136.271L74.1581 136.193C74.417 136.193 74.5464 136.089 74.5464 135.882L74.5464 135.106L74.4687 135.028L65.305 135.028L65.2274 135.106L65.2274 135.96C65.2274 136.115 65.4086 136.193 65.771 136.193C66.7547 136.296 67.3759 136.478 67.6348 136.737C67.8419 136.944 68.2043 137.643 68.722 138.833C69.2915 140.386 69.9904 142.173 70.8188 144.192C71.6471 146.211 72.5143 148.282 73.4203 150.404C74.3264 152.527 75.2065 154.611 76.0607 156.656C76.915 158.701 77.6527 160.5 78.274 162.053C78.5846 162.881 78.947 163.334 79.3612 163.412C79.7754 163.49 80.2672 163.011 80.8367 161.975C81.0956 161.458 81.4191 160.772 81.8074 159.918C82.1957 159.063 82.6099 158.144 83.05 157.161C83.49 156.177 83.9301 155.18 84.3702 154.171C84.8102 153.161 85.2373 152.191 85.6515 151.259C86.0139 152.191 86.4022 153.161 86.8164 154.171C87.2306 155.18 87.6448 156.177 88.0589 157.161C88.4731 158.144 88.8485 159.05 89.185 159.879C89.5215 160.707 89.8192 161.406 90.078 161.975C90.4922 162.856 90.9193 163.322 91.3594 163.373C91.7995 163.425 92.2266 162.959 92.6408 161.975C92.9514 161.251 93.3138 160.371 93.728 159.335C94.1422 158.3 94.5822 157.174 95.0482 155.957C95.5141 154.74 96.006 153.472 96.5237 152.152C97.0414 150.832 97.5591 149.55 98.0769 148.308L101.804 138.989C102.115 138.057 102.529 137.384 103.047 136.969C103.565 136.555 104.393 136.296 105.532 136.193C105.739 136.193 105.843 136.089 105.843 135.882L105.843 135.028Z" fill="#A3BA3D"/>
</svg>
