<svg width="340" height="353" viewBox="0 0 340 353" fill="none" xmlns="http://www.w3.org/2000/svg">
<path d="M270.134 230.784L254.69 205.847" stroke="#ADC34C" stroke-width="5"/>
<path d="M189.096 205.826L255.096 205.587L283.902 147.124L251.749 95.2098L186.132 94.2355L156.956 153.933L189.096 205.826Z" stroke="#ADC34C" stroke-width="5"/>
<path d="M92.4227 265.699L158.423 265.46L187.229 206.997L155.076 155.083L89.459 154.108L60.2834 213.806L92.4227 265.699Z" stroke="#ADC34C" stroke-width="5"/>
<line x1="87.584" y1="154.09" x2="72.1401" y2="129.154" stroke="#ADC34C" stroke-width="5"/>
<path d="M275.153 239.678L275.153 262.428L271.356 262.428L271.356 239.678L275.153 239.678ZM294.434 250.756L294.434 259.724C294.153 260.068 293.726 260.48 293.153 260.959C292.591 261.428 291.83 261.844 290.872 262.209C289.924 262.563 288.726 262.74 287.278 262.74C286.059 262.74 284.945 262.542 283.934 262.146C282.934 261.751 282.075 261.152 281.356 260.349C280.638 259.547 280.085 258.547 279.7 257.349C279.315 256.141 279.122 254.714 279.122 253.068L279.122 249.021C279.122 247.396 279.294 245.98 279.638 244.771C279.992 243.563 280.507 242.558 281.184 241.756C281.862 240.943 282.684 240.344 283.653 239.959C284.622 239.563 285.737 239.365 286.997 239.365C288.591 239.365 289.919 239.646 290.981 240.209C292.054 240.761 292.872 241.584 293.434 242.678C294.007 243.761 294.341 245.084 294.434 246.646L290.731 246.646C290.648 245.688 290.466 244.912 290.184 244.318C289.914 243.714 289.523 243.266 289.013 242.974C288.502 242.683 287.846 242.537 287.044 242.537C286.315 242.537 285.69 242.662 285.169 242.912C284.648 243.162 284.221 243.553 283.888 244.084C283.554 244.605 283.309 245.271 283.153 246.084C282.997 246.896 282.919 247.865 282.919 248.99L282.919 253.068C282.919 254.214 283.018 255.198 283.216 256.021C283.414 256.844 283.7 257.521 284.075 258.053C284.46 258.573 284.934 258.959 285.497 259.209C286.059 259.448 286.7 259.568 287.419 259.568C288.127 259.568 288.69 259.495 289.106 259.349C289.523 259.204 289.846 259.042 290.075 258.865C290.315 258.678 290.507 258.532 290.653 258.428L290.653 253.74L286.981 253.74L286.981 250.756L294.434 250.756Z" fill="#ADC44C"/>
<path d="M57.4331 98.0609L57.4331 120.811L53.6362 120.811L53.6362 98.0609L57.4331 98.0609ZM64.8081 107.983L64.8081 111.17L56.5581 111.17L56.5581 107.983L64.8081 107.983ZM65.8706 98.0609L65.8706 101.248L56.5581 101.248L56.5581 98.0609L65.8706 98.0609ZM76.2612 110.561L71.6206 110.561L71.605 107.655L75.7144 107.655C76.3498 107.655 76.8914 107.53 77.3394 107.28C77.7873 107.03 78.1258 106.665 78.355 106.186C78.5946 105.707 78.7144 105.129 78.7144 104.452C78.7144 103.702 78.6102 103.092 78.4019 102.623C78.1935 102.144 77.8654 101.795 77.4175 101.577C76.98 101.358 76.4175 101.248 75.73 101.248L72.7456 101.248L72.7456 120.811L68.9487 120.811L68.9487 98.0609L75.73 98.0609C76.7925 98.0609 77.7404 98.1859 78.5737 98.4359C79.4175 98.6755 80.131 99.0453 80.7144 99.5453C81.2977 100.045 81.7404 100.686 82.0425 101.467C82.355 102.238 82.5112 103.155 82.5112 104.217C82.5112 105.144 82.3133 105.998 81.9175 106.78C81.5216 107.551 80.9331 108.186 80.1519 108.686C79.381 109.176 78.4227 109.467 77.2769 109.561L76.2612 110.561ZM76.1206 120.811L70.3706 120.811L72.1206 117.639L76.1206 117.639C76.7977 117.639 77.355 117.493 77.7925 117.202C78.23 116.91 78.5581 116.504 78.7769 115.983C78.9956 115.462 79.105 114.853 79.105 114.155C79.105 113.426 79.0112 112.79 78.8237 112.248C78.6362 111.707 78.3341 111.29 77.9175 110.998C77.5008 110.707 76.9487 110.561 76.2612 110.561L72.4331 110.561L72.4644 107.655L77.355 107.655L78.23 108.764C79.3237 108.785 80.2144 109.056 80.9019 109.577C81.5894 110.087 82.0946 110.748 82.4175 111.561C82.7404 112.373 82.9019 113.243 82.9019 114.17C82.9019 115.618 82.631 116.837 82.0894 117.827C81.5477 118.806 80.7716 119.551 79.7612 120.061C78.7612 120.561 77.5477 120.811 76.1206 120.811Z" fill="#ADC44C"/>
</svg>
