<?xml version="1.0" encoding="UTF-8" standalone="no"?>
<svg
   width="65"
   height="65"
   viewBox="0 0 65 65"
   fill="none"
   version="1.1"
   id="svg4"
   sodipodi:docname="wikipedia_hover.svg"
   inkscape:version="1.2.2 (732a01da63, 2022-12-09)"
   xmlns:inkscape="http://www.inkscape.org/namespaces/inkscape"
   xmlns:sodipodi="http://sodipodi.sourceforge.net/DTD/sodipodi-0.dtd"
   xmlns="http://www.w3.org/2000/svg"
   xmlns:svg="http://www.w3.org/2000/svg">
  <defs
     id="defs8" />
  <sodipodi:namedview
     id="namedview6"
     pagecolor="#ffffff"
     bordercolor="#000000"
     borderopacity="0.25"
     inkscape:showpageshadow="2"
     inkscape:pageopacity="0.0"
     inkscape:pagecheckerboard="0"
     inkscape:deskcolor="#d1d1d1"
     showgrid="false"
     inkscape:zoom="6.1846154"
     inkscape:cx="11.156716"
     inkscape:cy="26.921642"
     inkscape:window-width="1920"
     inkscape:window-height="991"
     inkscape:window-x="-9"
     inkscape:window-y="-9"
     inkscape:window-maximized="1"
     inkscape:current-layer="svg4" />
  <ellipse
     style="fill:#0f1918;fill-opacity:1;stroke-width:1.76407;stroke-linecap:round"
     id="path1155"
     cx="32.17662"
     cy="31.36816"
     rx="29.912935"
     ry="29.266169" />
  <path
     d="M32.5388 -6.27657e-07C37.043 -7.14541e-07 41.2624 0.854241 45.1971 2.56272C49.1318 4.27121 52.5617 6.58801 55.4869 9.51314C58.412 12.4383 60.7288 15.8682 62.4373 19.8029C64.1458 23.7376 65 27.957 65 32.4612C65 36.9654 64.1458 41.1848 62.4373 45.1195C60.7288 49.0542 58.412 52.497 55.4869 55.448C52.5617 58.399 49.1318 60.7288 45.1971 62.4373C41.2624 64.1458 37.043 65 32.5388 65C28.0346 65 23.8152 64.1458 19.8805 62.4373C15.9458 60.7288 12.503 58.399 9.55197 55.448C6.60096 52.497 4.27121 49.0542 2.56272 45.1195C0.854242 41.1848 7.13043e-07 36.9654 6.26159e-07 32.4612C5.39276e-07 27.957 0.854242 23.7376 2.56272 19.8029C4.27121 15.8682 6.60096 12.4383 9.55197 9.51314C12.503 6.58801 15.9458 4.27121 19.8805 2.56272C23.8152 0.854241 28.0346 -5.40774e-07 32.5388 -6.27657e-07ZM52.8076 18.3274L52.73 18.2497L44.3429 18.2497L44.1876 18.3274L44.1876 19.1816C44.1876 19.2334 44.2393 19.311 44.3429 19.4146C44.3947 19.4663 44.4723 19.4922 44.5759 19.4922L45.2748 19.5699C45.689 19.5699 45.9867 19.6217 46.1679 19.7252C46.3491 19.8288 46.5173 19.9582 46.6726 20.1135C47.035 20.3724 47.0868 20.916 46.828 21.7443L39.3728 41.2366L39.1398 41.1589L34.4026 30.5197C34.4026 30.4679 34.4156 30.4291 34.4415 30.4032C34.4673 30.3773 34.4803 30.3385 34.4803 30.2867L34.4803 30.2091L38.3632 22.2879C38.6221 21.8738 38.8421 21.4855 39.0233 21.1231C39.2045 20.7607 39.3469 20.5018 39.4504 20.3465C39.6575 19.9841 39.8517 19.764 40.0329 19.6864C40.2141 19.6087 40.5894 19.544 41.1589 19.4922C41.4178 19.4922 41.5472 19.3887 41.5472 19.1816L41.5472 18.3274L41.4695 18.2497L34.6356 18.2497L34.4803 18.3274L34.4803 19.1816C34.4803 19.2334 34.5321 19.311 34.6356 19.4146C34.6874 19.4663 34.765 19.4922 34.8686 19.4922L35.1792 19.5699C35.9558 19.5699 36.4217 19.6993 36.5771 19.9582C36.6806 20.1135 36.7453 20.3076 36.7712 20.5406C36.7971 20.7736 36.6806 21.1748 36.4217 21.7443L33.3931 28.2676L30.7527 22.2103C30.3385 21.2266 30.1055 20.5665 30.0538 20.23C30.002 19.8935 30.3126 19.6734 30.9857 19.5699L31.5293 19.4922C31.7364 19.4922 31.8399 19.3887 31.8399 19.1816L31.8399 18.3274L31.6846 18.2497L24.4624 18.2497L24.307 18.3274L24.307 19.1816C24.307 19.3887 24.4883 19.4922 24.8507 19.4922C25.1613 19.544 25.4072 19.6087 25.5884 19.6864C25.7696 19.764 25.9379 19.8935 26.0932 20.0747C26.2485 20.2559 26.4168 20.5406 26.598 20.9289C26.7792 21.3172 27.0251 21.8479 27.3357 22.5209C27.3875 22.6245 27.4393 22.7539 27.491 22.9092C27.5428 23.0645 27.6205 23.2457 27.724 23.4528C27.8276 23.6599 27.9311 23.8929 28.0346 24.1517L30.8303 30.2091C30.8821 30.3644 30.9598 30.5456 31.0633 30.7527C31.1669 30.9598 31.2575 31.1798 31.3351 31.4128C31.4128 31.6458 31.5293 31.9176 31.6846 32.2282L27.5687 41.2366L27.3357 41.1589C26.0932 38.3114 24.9542 35.6452 23.9188 33.1601C23.4528 32.0729 22.9998 30.9727 22.5597 29.8596C22.1197 28.7465 21.6796 27.6722 21.2395 26.6368C20.7995 25.6014 20.3982 24.6436 20.0358 23.7634C19.6734 22.8833 19.3887 22.1326 19.1816 21.5113C19.0263 20.9936 18.9486 20.6053 18.9486 20.3465C18.9486 19.8288 19.3628 19.5699 20.1912 19.5699L21.1231 19.4922C21.3819 19.4922 21.5114 19.3887 21.5114 19.1816L21.5114 18.405L21.4337 18.3274L12.27 18.3274L12.1924 18.405L12.1924 19.2593C12.1924 19.4146 12.3736 19.4922 12.736 19.4922C13.7196 19.5958 14.3409 19.777 14.5998 20.0358C14.8069 20.2429 15.1693 20.9419 15.687 22.1326C16.2565 23.6858 16.9554 25.4719 17.7838 27.491C18.6121 29.5102 19.4793 31.581 20.3853 33.7037C21.2913 35.8264 22.1714 37.9102 23.0257 39.9552C23.8799 42.0002 24.6177 43.7993 25.2389 45.3524C25.5496 46.1808 25.912 46.6338 26.3262 46.7115C26.7403 46.7891 27.2322 46.3102 27.8017 45.2748C28.0605 44.7571 28.3841 44.0711 28.7724 43.2168C29.1607 42.3626 29.5749 41.4436 30.0149 40.46C30.455 39.4763 30.8951 38.4797 31.3351 37.4701C31.7752 36.4606 32.2023 35.4898 32.6165 34.5579C32.9789 35.4898 33.3672 36.4606 33.7814 37.4701C34.1955 38.4797 34.6097 39.4763 35.0239 40.46C35.4381 41.4436 35.8134 42.3497 36.1499 43.178C36.4865 44.0064 36.7842 44.7053 37.043 45.2748C37.4572 46.1549 37.8843 46.6209 38.3244 46.6726C38.7644 46.7244 39.1916 46.2585 39.6057 45.2748C39.9164 44.55 40.2788 43.6699 40.693 42.6344C41.1071 41.599 41.5472 40.4729 42.0131 39.2563C42.4791 38.0396 42.9709 36.7712 43.4887 35.451C44.0064 34.1308 44.5241 32.8495 45.0418 31.6069L48.7694 22.2879C49.08 21.356 49.4942 20.683 50.0119 20.2688C50.5297 19.8546 51.358 19.5958 52.497 19.4922C52.7041 19.4922 52.8076 19.3887 52.8076 19.1816L52.8076 18.3274Z"
     fill="#A3BA3D"
     id="path2"
     style="fill:#bca582;fill-opacity:1" />
</svg>
