<?xml version="1.0" encoding="UTF-8" standalone="no"?>
<svg
   width="65"
   height="65"
   viewBox="0 0 65 65"
   fill="none"
   version="1.1"
   id="svg4"
   sodipodi:docname="youtube_hover.svg"
   inkscape:version="1.2.2 (732a01da63, 2022-12-09)"
   xmlns:inkscape="http://www.inkscape.org/namespaces/inkscape"
   xmlns:sodipodi="http://sodipodi.sourceforge.net/DTD/sodipodi-0.dtd"
   xmlns="http://www.w3.org/2000/svg"
   xmlns:svg="http://www.w3.org/2000/svg">
  <defs
     id="defs8" />
  <sodipodi:namedview
     id="namedview6"
     pagecolor="#ffffff"
     bordercolor="#000000"
     borderopacity="0.25"
     inkscape:showpageshadow="2"
     inkscape:pageopacity="0.0"
     inkscape:pagecheckerboard="0"
     inkscape:deskcolor="#d1d1d1"
     showgrid="false"
     inkscape:zoom="6.1846154"
     inkscape:cx="-7.9228856"
     inkscape:cy="29.023632"
     inkscape:window-width="1920"
     inkscape:window-height="991"
     inkscape:window-x="-9"
     inkscape:window-y="-9"
     inkscape:window-maximized="1"
     inkscape:current-layer="svg4" />
  <ellipse
     style="fill:#0f1918;fill-opacity:1;stroke-width:1.60271;stroke-linecap:round"
     id="path897"
     cx="31.044777"
     cy="31.772388"
     rx="26.679104"
     ry="30.80224" />
  <path
     d="M46.9056 39.6834C47.3198 39.6834 47.6045 39.8128 47.7599 40.0717C47.9669 40.2788 48.0705 40.6412 48.0705 41.1589L48.0705 42.4791L45.7407 42.4791L45.7407 41.1589C45.7407 40.6929 45.8184 40.3305 45.9737 40.0717C46.2326 39.8128 46.5432 39.6834 46.9056 39.6834ZM37.8196 39.6834C38.182 39.6834 38.4409 39.7869 38.5962 39.994C38.8033 40.2011 38.9068 40.5117 38.9068 40.9259L38.9068 47.4492C38.9068 47.8634 38.8292 48.1481 38.6738 48.3035C38.5185 48.5106 38.2855 48.6141 37.9749 48.6141C37.7678 48.6141 37.5607 48.5623 37.3536 48.4588C37.0948 48.3552 36.8877 48.1999 36.7324 47.9928L36.7324 40.1493C36.9395 39.9423 37.1207 39.8128 37.276 39.7611C37.3795 39.7093 37.5607 39.6834 37.8196 39.6834ZM32.5388 -6.27657e-07C37.043 -7.14541e-07 41.2624 0.854241 45.1971 2.56272C49.1318 4.27121 52.5617 6.58801 55.4869 9.51314C58.412 12.4383 60.7288 15.8682 62.4373 19.8029C64.1458 23.7376 65 27.957 65 32.4612C65 36.9654 64.1458 41.1848 62.4373 45.1195C60.7288 49.0542 58.412 52.497 55.4869 55.448C52.5617 58.399 49.1318 60.7288 45.1971 62.4373C41.2624 64.1458 37.043 65 32.5388 65C28.0346 65 23.8152 64.1458 19.8805 62.4373C15.9458 60.7288 12.503 58.399 9.55197 55.448C6.60096 52.497 4.27121 49.0542 2.56272 45.1195C0.854242 41.1848 7.13043e-07 36.9654 6.26159e-07 32.4612C5.39276e-07 27.957 0.854242 23.7376 2.56272 19.8029C4.27121 15.8682 6.60096 12.4383 9.55197 9.51314C12.503 6.58801 15.9458 4.27121 19.8805 2.56272C23.8152 0.854241 28.0346 -5.40774e-07 32.5388 -6.27657e-07ZM23.3751 33.3154L14.2115 33.3154L14.2115 35.8005L17.3178 35.8005L17.3178 50.4002L20.2688 50.4002L20.2688 35.8005L23.3751 35.8005L23.3751 33.3154ZM23.4528 25.2389L27.3357 14.2115L23.9188 14.2115L21.8996 21.7443L21.6667 21.7443L19.4922 14.2115L16.1529 14.2115L20.1135 25.5496L20.1135 33.0048L23.4528 33.0048L23.4528 25.2389ZM32.0729 37.8196L29.4325 37.8196L29.4325 47.3716C29.329 47.5269 29.1995 47.6563 29.0442 47.7599L28.5783 48.0705C28.2676 48.2258 28.0346 48.3035 27.8793 48.3035C27.6205 48.3035 27.4393 48.2517 27.3357 48.1481C27.2322 48.0446 27.1804 47.8116 27.1804 47.4492L27.1804 37.8196L24.54 37.8196L24.54 48.3811C24.54 49.1059 24.6953 49.6495 25.006 50.0119C25.3166 50.4261 25.7567 50.6332 26.3262 50.6332C26.7921 50.6332 27.3098 50.4779 27.8793 50.1673C28.3453 49.9602 28.863 49.5719 29.4325 49.0024L29.4325 50.4002L32.0729 50.4002L32.0729 37.8196ZM31.8399 33.3154C33.2378 33.3154 34.2991 32.9789 35.0239 32.3059C35.8005 31.6846 36.1888 30.7527 36.1888 29.5102L36.1888 22.3656C36.1888 21.3819 35.8005 20.5277 35.0239 19.8029C34.2991 19.1298 33.2895 18.7933 31.9952 18.7933C30.6491 18.7933 29.5878 19.1039 28.8112 19.7252C27.9829 20.3465 27.5687 21.2007 27.5687 22.2879L27.5687 29.5102C27.5687 30.7009 27.957 31.6328 28.7336 32.3059C29.4584 32.9789 30.4938 33.3154 31.8399 33.3154ZM41.6249 40.8483C41.6249 39.8128 41.3919 39.0104 40.9259 38.4409C40.5635 37.9231 39.9423 37.6643 39.0621 37.6643C38.5962 37.6643 38.182 37.7678 37.8196 37.9749C37.4054 38.1302 37.043 38.415 36.7324 38.8292L36.7324 33.3154L34.0143 33.3154L34.0143 50.4002L36.7324 50.4002L36.7324 49.4683C36.8877 49.6754 37.056 49.8437 37.2372 49.9731C37.4184 50.1025 37.6125 50.219 37.8196 50.3226C38.182 50.4779 38.6479 50.5556 39.2174 50.5556C39.994 50.5556 40.5894 50.3226 41.0036 49.8566C41.4178 49.3389 41.6249 48.6659 41.6249 47.8375L41.6249 40.8483ZM40.693 33.1601C41.3142 33.1601 41.8837 33.0307 42.4014 32.7718C42.9192 32.5129 43.4887 32.0729 44.1099 31.4516L44.1099 33.0048L47.0609 33.0048L47.0609 19.1039L44.1099 19.1039L44.1099 29.6655C43.9028 29.9243 43.5922 30.1832 43.178 30.4421C42.8674 30.5974 42.6085 30.675 42.4014 30.675C42.039 30.675 41.8319 30.5974 41.7802 30.4421C41.6249 30.2867 41.5472 30.0538 41.5472 29.7431L41.5472 19.1039L38.5962 19.1039L38.5962 30.7527C38.5962 31.581 38.7774 32.1764 39.1398 32.5388C39.3986 32.953 39.9164 33.1601 40.693 33.1601ZM50.7885 41.2366C50.7885 39.994 50.452 39.0621 49.779 38.4409C49.1577 37.8196 48.2258 37.509 46.9833 37.509C45.7925 37.509 44.8347 37.8455 44.1099 38.5185C43.3851 39.2433 43.0227 40.1493 43.0227 41.2366L43.0227 46.828C43.0227 48.0705 43.3592 49.0283 44.0323 49.7013C44.7571 50.4261 45.689 50.7885 46.828 50.7885C48.1223 50.7885 49.1059 50.452 49.779 49.779C50.452 49.1577 50.7885 48.174 50.7885 46.828L50.7885 46.2067L48.0705 46.2067L48.0705 46.7503C48.0705 47.5269 47.9928 48.0187 47.8375 48.2258C47.6304 48.4329 47.3198 48.5364 46.9056 48.5364C46.3879 48.5364 46.0773 48.407 45.9737 48.1481C45.8184 47.9411 45.7407 47.4751 45.7407 46.7503L45.7407 44.4205L50.7885 44.4205L50.7885 41.2366ZM31.8399 21.2007C32.2023 21.2007 32.5388 21.2784 32.8495 21.4337C33.0566 21.6408 33.1601 21.8996 33.1601 22.2103L33.1601 29.7431C33.1601 30.1573 33.0566 30.4421 32.8495 30.5974C32.6424 30.8045 32.3059 30.908 31.8399 30.908C31.4257 30.908 31.141 30.8045 30.9857 30.5974C30.7268 30.4421 30.5974 30.1573 30.5974 29.7431L30.5974 22.2103C30.5974 21.9514 30.7268 21.6926 30.9857 21.4337C31.1928 21.2784 31.4775 21.2007 31.8399 21.2007Z"
     fill="#A3BA3D"
     id="path2"
     style="fill:#bca582;fill-opacity:1" />
</svg>
